<svg xmlns="http://www.w3.org/2000/svg" viewBox="0 0 362.734 411.38" fill="white"><polygon points="362.734,0 329.688,370.199 181.145,411.38 33.011,370.257 0,0"/><polygon points="301.397,346.626 329.637,30.274 181.367,30.274 181.367,379.903" fill="#000" opacity=".2"/><polygon points="75.677,167.597 79.747,213.007 181.367,213.007 181.367,167.597"/><polygon points="181.367,75.685 181.21,75.685 67.499,75.685 71.627,121.096 181.367,121.096"/><polygon points="181.367,332.779 181.168,332.832 130.594,319.176 127.361,282.959 102.786,282.959 81.776,282.959 88.138,354.26 181.158,380.083"/><polygon points="237.128,213.007 231.857,271.901 181.21,285.571 181.21,332.815 274.304,307.014 274.987,299.342 285.658,179.791 286.766,167.597 294.964,75.685 181.21,75.685 181.21,121.096 245.198,121.096 241.066,167.597 181.21,167.597 181.21,213.007"/></svg>