<svg xmlns="http://www.w3.org/2000/svg" viewBox="0 0 128 128" fill="white"><path d="M77.184 65.455c-.372.749-1.144 1.575-2.509 2.534L34.562 96.798c-2.19 1.591-5.334 1.001-7.021-1.319-1.687-2.32-1.28-5.49.91-7.082l36.173-26.194v-.538L41.896 37.487c-1.854-1.972-1.661-5.161.431-7.124 2.092-1.962 5.29-1.954 7.144.018l27.271 29.012c1.548 1.647 1.663 4.141.442 6.062z"/><path d="M63.55 87h21.613c2.513 0 4.55 2.015 4.55 4.5 0 2.485-2.037 4.5-4.55 4.5H63.55C61.037 96 59 93.985 59 91.5 59 89.015 61.037 87 63.55 87z"/></svg>