<svg xmlns="http://www.w3.org/2000/svg" viewBox="0 0 20 20" fill="none"><path fill-rule="evenodd" clip-rule="evenodd" d="M10.5308 0.98291L18.3467 5.48291V14.4829L10.5308 18.9829L2.71484 14.4829V5.48291L10.5308 0.98291ZM17.503 5.9687L10.5308 1.95448L3.55859 5.9687V13.9971L10.5308 18.0113L17.503 13.9971V5.9687Z" fill="white"/><path fill-rule="evenodd" clip-rule="evenodd" d="M10.5308 18.0114V13.9971V9.98293L7.04468 7.97582L3.55859 5.96871V9.98293V13.9971L10.5308 18.0114Z" fill="white"/><path d="M14.0169 16.0042L17.503 13.9971L14.0169 11.99L10.5308 13.9971V18.0114L14.0169 16.0042Z" fill="white"/><path d="M10.5308 9.98293V13.9971L14.0169 11.99L10.5308 9.98293Z" fill="white"/><path d="M14.0169 7.97582L10.5308 9.98293L14.0169 11.99L17.503 9.98293L14.0169 7.97582Z" fill="white"/><path d="M14.0169 3.96161L10.5308 1.9545L7.04468 3.96161L3.55859 5.96871L7.04468 7.97582L10.5308 5.96871L14.0169 7.97582L17.503 5.96871L14.0169 3.96161Z" fill="white"/><path d="M10.5308 9.98293L14.0169 7.97582L10.5308 5.96871L7.04468 7.97582L10.5308 9.98293Z" fill="white"/></svg>